<?xml version="1.0" encoding="utf-8"?>
<!-- Generator: Adobe Illustrator 18.0.0, SVG Export Plug-In . SVG Version: 6.00 Build 0)  -->
<!DOCTYPE svg PUBLIC "-//W3C//DTD SVG 1.1//EN" "http://www.w3.org/Graphics/SVG/1.1/DTD/svg11.dtd">
<svg version="1.1" id="Layer_1" xmlns="http://www.w3.org/2000/svg" xmlns:xlink="http://www.w3.org/1999/xlink" x="0px" y="0px"
	 viewBox="0 0 265.3 184.9" enable-background="new 0 0 265.3 184.9" xml:space="preserve">
<g>
	<defs>
		<rect id="SVGID_1_" x="0" y="0" width="265.3" height="184.9"/>
	</defs>
	<clipPath id="SVGID_2_">
		<use xlink:href="#SVGID_1_"  overflow="visible"/>
	</clipPath>
	<rect x="0" y="0" clip-path="url(#SVGID_2_)" fill="#BFD6DA" width="265.3" height="184.9"/>
	<g clip-path="url(#SVGID_2_)">
		<path fill="#FFFFFF" d="M6.6,13.7c3.5,7.8-0.9,9.5-0.9,9.5S1.7,20.7,6.6,13.7z"/>
		<path fill="#FFFFFF" d="M-3.1,17.3c8,3,6.1,7.3,6.1,7.3S-1.6,25.7-3.1,17.3z"/>
		<path fill="#FFFFFF" d="M-7.4,26.6c7.8-3.5,9.5,0.9,9.5,0.9S-0.4,31.5-7.4,26.6z"/>
		<path fill="#FFFFFF" d="M-3.8,36.3c3-8,7.3-6.1,7.3-6.1S4.6,34.9-3.8,36.3z"/>
		<path fill="#FFFFFF" d="M5.5,40.7c-3.5-7.8,0.9-9.5,0.9-9.5S10.4,33.7,5.5,40.7z"/>
		<path fill="#FFFFFF" d="M15.2,37.1c-8-3-6.1-7.3-6.1-7.3S13.8,28.7,15.2,37.1z"/>
		<path fill="#FFFFFF" d="M19.6,27.7c-7.8,3.5-9.5-0.9-9.5-0.9S12.6,22.8,19.6,27.7z"/>
		<path fill="#FFFFFF" d="M16,18c-3,8-7.3,6.1-7.3,6.1S7.6,19.5,16,18z"/>
	</g>
	<g clip-path="url(#SVGID_2_)">
		<path fill="#FFFFFF" d="M36.7,36.2c3.5,7.8-0.9,9.5-0.9,9.5S31.8,43.2,36.7,36.2z"/>
		<path fill="#FFFFFF" d="M27,39.8c8,3,6.1,7.3,6.1,7.3S28.5,48.2,27,39.8z"/>
		<path fill="#FFFFFF" d="M22.7,49.2c7.8-3.5,9.5,0.9,9.5,0.9S29.7,54.1,22.7,49.2z"/>
		<path fill="#FFFFFF" d="M26.3,58.9c3-8,7.3-6.1,7.3-6.1S34.7,57.4,26.3,58.9z"/>
		<path fill="#FFFFFF" d="M35.6,63.2c-3.5-7.8,0.9-9.5,0.9-9.5S40.5,56.2,35.6,63.2z"/>
		<path fill="#FFFFFF" d="M45.3,59.6c-8-3-6.1-7.3-6.1-7.3S43.9,51.2,45.3,59.6z"/>
		<path fill="#FFFFFF" d="M49.6,50.3c-7.8,3.5-9.5-0.9-9.5-0.9S42.7,45.4,49.6,50.3z"/>
		<path fill="#FFFFFF" d="M46.1,40.6c-3,8-7.3,6.1-7.3,6.1S37.7,42,46.1,40.6z"/>
	</g>
	<g clip-path="url(#SVGID_2_)">
		<path fill="#FFFFFF" d="M66.8,58.8c3.5,7.8-0.9,9.5-0.9,9.5S61.9,65.8,66.8,58.8z"/>
		<path fill="#FFFFFF" d="M57.1,62.4c8,3,6.1,7.3,6.1,7.3S58.6,70.7,57.1,62.4z"/>
		<path fill="#FFFFFF" d="M52.8,71.7c7.8-3.5,9.5,0.9,9.5,0.9S59.8,76.6,52.8,71.7z"/>
		<path fill="#FFFFFF" d="M56.4,81.4c3-8,7.3-6.1,7.3-6.1S64.7,79.9,56.4,81.4z"/>
		<path fill="#FFFFFF" d="M65.7,85.7c-3.5-7.8,0.9-9.5,0.9-9.5S70.6,78.8,65.7,85.7z"/>
		<path fill="#FFFFFF" d="M75.4,82.2c-8-3-6.1-7.3-6.1-7.3S73.9,73.8,75.4,82.2z"/>
		<path fill="#FFFFFF" d="M79.7,72.8c-7.8,3.5-9.5-0.9-9.5-0.9S72.8,67.9,79.7,72.8z"/>
		<path fill="#FFFFFF" d="M76.2,63.1c-3,8-7.3,6.1-7.3,6.1S67.8,64.6,76.2,63.1z"/>
	</g>
	<g clip-path="url(#SVGID_2_)">
		<path fill="#FFFFFF" d="M96.9,81.3c3.5,7.8-0.9,9.5-0.9,9.5S92,88.3,96.9,81.3z"/>
		<path fill="#FFFFFF" d="M87.2,84.9c8,3,6.1,7.3,6.1,7.3S88.7,93.3,87.2,84.9z"/>
		<path fill="#FFFFFF" d="M82.9,94.3c7.8-3.5,9.5,0.9,9.5,0.9S89.8,99.2,82.9,94.3z"/>
		<path fill="#FFFFFF" d="M86.4,104c3-8,7.3-6.1,7.3-6.1S94.8,102.5,86.4,104z"/>
		<path fill="#FFFFFF" d="M95.8,108.3c-3.5-7.8,0.9-9.5,0.9-9.5S100.7,101.3,95.8,108.3z"/>
		<path fill="#FFFFFF" d="M105.5,104.7c-8-3-6.1-7.3-6.1-7.3S104,96.3,105.5,104.7z"/>
		<path fill="#FFFFFF" d="M109.8,95.3c-7.8,3.5-9.5-0.9-9.5-0.9S102.9,90.4,109.8,95.3z"/>
		<path fill="#FFFFFF" d="M106.3,85.7c-3,8-7.3,6.1-7.3,6.1S97.9,87.1,106.3,85.7z"/>
	</g>
	<g clip-path="url(#SVGID_2_)">
		<path fill="#FFFFFF" d="M127,103.9c3.5,7.8-0.9,9.5-0.9,9.5S122.1,110.8,127,103.9z"/>
		<path fill="#FFFFFF" d="M117.3,107.4c8,3,6.1,7.3,6.1,7.3S118.8,115.8,117.3,107.4z"/>
		<path fill="#FFFFFF" d="M113,116.8c7.8-3.5,9.5,0.9,9.5,0.9S119.9,121.7,113,116.8z"/>
		<path fill="#FFFFFF" d="M116.5,126.5c3-8,7.3-6.1,7.3-6.1S124.9,125,116.5,126.5z"/>
		<path fill="#FFFFFF" d="M125.9,130.8c-3.5-7.8,0.9-9.5,0.9-9.5S130.8,123.9,125.9,130.8z"/>
		<path fill="#FFFFFF" d="M135.6,127.3c-8-3-6.1-7.3-6.1-7.3S134.1,118.9,135.6,127.3z"/>
		<path fill="#FFFFFF" d="M139.9,117.9c-7.8,3.5-9.5-0.9-9.5-0.9S132.9,113,139.9,117.9z"/>
		<path fill="#FFFFFF" d="M136.3,108.2c-3,8-7.3,6.1-7.3,6.1S128,109.7,136.3,108.2z"/>
	</g>
	<g clip-path="url(#SVGID_2_)">
		<path fill="#FFFFFF" d="M157.1,126.4c3.5,7.8-0.9,9.5-0.9,9.5S152.2,133.4,157.1,126.4z"/>
		<path fill="#FFFFFF" d="M147.4,130c8,3,6.1,7.3,6.1,7.3S148.8,138.4,147.4,130z"/>
		<path fill="#FFFFFF" d="M143,139.4c7.8-3.5,9.5,0.9,9.5,0.9S150,144.2,143,139.4z"/>
		<path fill="#FFFFFF" d="M146.6,149c3-8,7.3-6.1,7.3-6.1S155,147.6,146.6,149z"/>
		<path fill="#FFFFFF" d="M156,153.4c-3.5-7.8,0.9-9.5,0.9-9.5S160.9,146.4,156,153.4z"/>
		<path fill="#FFFFFF" d="M165.7,149.8c-8-3-6.1-7.3-6.1-7.3S164.2,141.4,165.7,149.8z"/>
		<path fill="#FFFFFF" d="M170,140.4c-7.8,3.5-9.5-0.9-9.5-0.9S163,135.5,170,140.4z"/>
		<path fill="#FFFFFF" d="M166.4,130.7c-3,8-7.3,6.1-7.3,6.1S158,132.2,166.4,130.7z"/>
	</g>
	<g clip-path="url(#SVGID_2_)">
		<path fill="#FFFFFF" d="M187.1,148.9c3.5,7.8-0.9,9.5-0.9,9.5S182.3,155.9,187.1,148.9z"/>
		<path fill="#FFFFFF" d="M177.5,152.5c8,3,6.1,7.3,6.1,7.3S178.9,160.9,177.5,152.5z"/>
		<path fill="#FFFFFF" d="M173.1,161.9c7.8-3.5,9.5,0.9,9.5,0.9S180.1,166.8,173.1,161.9z"/>
		<path fill="#FFFFFF" d="M176.7,171.6c3-8,7.3-6.1,7.3-6.1S185.1,170.1,176.7,171.6z"/>
		<path fill="#FFFFFF" d="M186.1,175.9c-3.5-7.8,0.9-9.5,0.9-9.5S191,168.9,186.1,175.9z"/>
		<path fill="#FFFFFF" d="M195.8,172.3c-8-3-6.1-7.3-6.1-7.3S194.3,163.9,195.8,172.3z"/>
		<path fill="#FFFFFF" d="M200.1,163c-7.8,3.5-9.5-0.9-9.5-0.9S193.1,158.1,200.1,163z"/>
		<path fill="#FFFFFF" d="M196.5,153.3c-3,8-7.3,6.1-7.3,6.1S188.1,154.7,196.5,153.3z"/>
	</g>
	<g clip-path="url(#SVGID_2_)">
		<path fill="#FFFFFF" d="M8,107.5c8.2,2.3,6.7,6.8,6.7,6.8S10.2,115.8,8,107.5z"/>
		<path fill="#FFFFFF" d="M19.6,104.5c2.3,8.2-2.4,9.2-2.4,9.2S13.7,110.6,19.6,104.5z"/>
		<path fill="#FFFFFF" d="M6.1,100.1c8.2,2.3,6.7,6.8,6.7,6.8S8.3,108.4,6.1,100.1z"/>
		<path fill="#FFFFFF" d="M17.6,97.1c2.3,8.2-2.4,9.2-2.4,9.2S11.7,103.2,17.6,97.1z"/>
		<path fill="#FFFFFF" d="M4.1,92.7c8.2,2.3,6.7,6.8,6.7,6.8S6.3,101,4.1,92.7z"/>
		<path fill="#FFFFFF" d="M15.7,89.7c2.3,8.2-2.4,9.2-2.4,9.2S9.8,95.8,15.7,89.7z"/>
		<path fill="#FFFFFF" d="M2.2,85.3c8.2,2.3,6.7,6.8,6.7,6.8S4.4,93.6,2.2,85.3z"/>
		<path fill="#FFFFFF" d="M13.7,82.2c2.3,8.2-2.4,9.2-2.4,9.2S7.8,88.4,13.7,82.2z"/>
		<path fill="#FFFFFF" d="M0.2,77.9c8.2,2.3,6.7,6.8,6.7,6.8S2.4,86.1,0.2,77.9z"/>
		<path fill="#FFFFFF" d="M11.8,74.8C14,83,9.4,84,9.4,84S5.9,80.9,11.8,74.8z"/>
		<path fill="#FFFFFF" d="M4.8,69.3c5.4,6.6,1.6,9.4,1.6,9.4S1.8,77.3,4.8,69.3z"/>
	</g>
	<g clip-path="url(#SVGID_2_)">
		<path fill="#FFFFFF" d="M34,133.1c7.3,4.3,4.7,8.2,4.7,8.2S34.1,141.7,34,133.1z"/>
		<path fill="#FFFFFF" d="M46,133.1c0.1,8.5-4.6,8.3-4.6,8.3S38.7,137.5,46,133.1z"/>
		<path fill="#FFFFFF" d="M34,125.5c7.3,4.3,4.7,8.2,4.7,8.2S34.1,134,34,125.5z"/>
		<path fill="#FFFFFF" d="M46,125.5c0.1,8.5-4.6,8.3-4.6,8.3S38.7,129.9,46,125.5z"/>
		<path fill="#FFFFFF" d="M34,117.8c7.3,4.3,4.7,8.2,4.7,8.2S34.1,126.3,34,117.8z"/>
		<path fill="#FFFFFF" d="M46,117.8c0.1,8.5-4.6,8.3-4.6,8.3S38.7,122.2,46,117.8z"/>
		<path fill="#FFFFFF" d="M34,110.2c7.3,4.3,4.7,8.2,4.7,8.2S34.1,118.7,34,110.2z"/>
		<path fill="#FFFFFF" d="M46,110.1c0.1,8.5-4.6,8.3-4.6,8.3S38.7,114.5,46,110.1z"/>
		<path fill="#FFFFFF" d="M34,102.5c7.3,4.3,4.7,8.2,4.7,8.2S34.1,111,34,102.5z"/>
		<path fill="#FFFFFF" d="M46,102.5c0.1,8.5-4.6,8.3-4.6,8.3S38.7,106.9,46,102.5z"/>
		<path fill="#FFFFFF" d="M40.6,95.3c3.5,7.8-0.9,9.5-0.9,9.5S35.8,102.3,40.6,95.3z"/>
	</g>
	<g clip-path="url(#SVGID_2_)">
		<path fill="#FFFFFF" d="M59.9,157.4c5.7,6.3,2.1,9.3,2.1,9.3S57.4,165.5,59.9,157.4z"/>
		<path fill="#FFFFFF" d="M71.4,160.9c-2.4,8.2-6.9,6.6-6.9,6.6S63.1,162.9,71.4,160.9z"/>
		<path fill="#FFFFFF" d="M62.2,150c5.7,6.3,2.1,9.3,2.1,9.3S59.7,158.2,62.2,150z"/>
		<path fill="#FFFFFF" d="M73.6,153.5c-2.4,8.2-6.9,6.6-6.9,6.6S65.4,155.6,73.6,153.5z"/>
		<path fill="#FFFFFF" d="M64.4,142.7c5.7,6.3,2.1,9.3,2.1,9.3S61.9,150.9,64.4,142.7z"/>
		<path fill="#FFFFFF" d="M75.9,146.2c-2.4,8.2-6.9,6.6-6.9,6.6S67.6,148.3,75.9,146.2z"/>
		<path fill="#FFFFFF" d="M66.7,135.4c5.7,6.3,2.1,9.3,2.1,9.3S64.2,143.5,66.7,135.4z"/>
		<path fill="#FFFFFF" d="M78.1,138.9c-2.4,8.2-6.9,6.6-6.9,6.6S69.9,141,78.1,138.9z"/>
		<path fill="#FFFFFF" d="M69,128.1c5.7,6.3,2.1,9.3,2.1,9.3S66.5,136.2,69,128.1z"/>
		<path fill="#FFFFFF" d="M80.4,131.6c-2.4,8.2-6.9,6.6-6.9,6.6S72.1,133.6,80.4,131.6z"/>
		<path fill="#FFFFFF" d="M77.4,123.2c1.1,8.4-3.6,8.8-3.6,8.8S70.7,128.4,77.4,123.2z"/>
	</g>
	<g clip-path="url(#SVGID_2_)">
		<path fill="#FFFFFF" d="M94,186.4c7.3,4.3,4.7,8.2,4.7,8.2S94,194.9,94,186.4z"/>
		<path fill="#FFFFFF" d="M106,186.4c0.1,8.5-4.6,8.3-4.6,8.3S98.7,190.8,106,186.4z"/>
		<path fill="#FFFFFF" d="M94,178.8c7.3,4.3,4.7,8.2,4.7,8.2S94,187.3,94,178.8z"/>
		<path fill="#FFFFFF" d="M106,178.7c0.1,8.5-4.6,8.3-4.6,8.3S98.7,183.1,106,178.7z"/>
		<path fill="#FFFFFF" d="M94,171.1c7.3,4.3,4.7,8.2,4.7,8.2S94,179.6,94,171.1z"/>
		<path fill="#FFFFFF" d="M106,171.1c0.1,8.5-4.6,8.3-4.6,8.3S98.7,175.5,106,171.1z"/>
		<path fill="#FFFFFF" d="M94,163.4c7.3,4.3,4.7,8.2,4.7,8.2S94,172,94,163.4z"/>
		<path fill="#FFFFFF" d="M106,163.4c0.1,8.5-4.6,8.3-4.6,8.3S98.7,167.8,106,163.4z"/>
		<path fill="#FFFFFF" d="M94,155.8c7.3,4.3,4.7,8.2,4.7,8.2S94,164.3,94,155.8z"/>
		<path fill="#FFFFFF" d="M106,155.8c0.1,8.5-4.6,8.3-4.6,8.3S98.7,160.2,106,155.8z"/>
		<path fill="#FFFFFF" d="M100.6,148.6c3.5,7.8-0.9,9.5-0.9,9.5S95.7,155.6,100.6,148.6z"/>
	</g>
	<g clip-path="url(#SVGID_2_)">
		<path fill="#FFFFFF" d="M72.3,26.6c7.3,4.3,4.7,8.2,4.7,8.2S72.3,35.1,72.3,26.6z"/>
		<path fill="#FFFFFF" d="M84.2,26.6c0.1,8.5-4.6,8.3-4.6,8.3S77,31,84.2,26.6z"/>
		<path fill="#FFFFFF" d="M72.3,18.9c7.3,4.3,4.7,8.2,4.7,8.2S72.3,27.4,72.3,18.9z"/>
		<path fill="#FFFFFF" d="M84.2,18.9c0.1,8.5-4.6,8.3-4.6,8.3S77,23.3,84.2,18.9z"/>
		<path fill="#FFFFFF" d="M72.3,11.3c7.3,4.3,4.7,8.2,4.7,8.2S72.3,19.8,72.3,11.3z"/>
		<path fill="#FFFFFF" d="M84.2,11.2c0.1,8.5-4.6,8.3-4.6,8.3S77,15.6,84.2,11.2z"/>
		<path fill="#FFFFFF" d="M72.3,3.6c7.3,4.3,4.7,8.2,4.7,8.2S72.3,12.1,72.3,3.6z"/>
		<path fill="#FFFFFF" d="M84.2,3.6c0.1,8.5-4.6,8.3-4.6,8.3S77,8,84.2,3.6z"/>
		<path fill="#FFFFFF" d="M72.3-4.1C79.6,0.3,77,4.2,77,4.2S72.3,4.5,72.3-4.1z"/>
		<path fill="#FFFFFF" d="M84.2-4.1c0.1,8.5-4.6,8.3-4.6,8.3S77,0.3,84.2-4.1z"/>
		<path fill="#FFFFFF" d="M78.9-11.2C82.4-3.5,78-1.8,78-1.8S74-4.3,78.9-11.2z"/>
	</g>
	<g clip-path="url(#SVGID_2_)">
		<path fill="#FFFFFF" d="M98.4,51c5.9,6.2,2.3,9.2,2.3,9.2S96.1,59.2,98.4,51z"/>
		<path fill="#FFFFFF" d="M109.9,54.3c-2.2,8.2-6.7,6.7-6.7,6.7S101.7,56.5,109.9,54.3z"/>
		<path fill="#FFFFFF" d="M100.5,43.7c5.9,6.2,2.3,9.2,2.3,9.2S98.2,51.9,100.5,43.7z"/>
		<path fill="#FFFFFF" d="M112,46.9c-2.2,8.2-6.7,6.7-6.7,6.7S103.8,49.1,112,46.9z"/>
		<path fill="#FFFFFF" d="M102.6,36.3c5.9,6.2,2.3,9.2,2.3,9.2S100.3,44.5,102.6,36.3z"/>
		<path fill="#FFFFFF" d="M114.1,39.5c-2.2,8.2-6.7,6.7-6.7,6.7S105.9,41.8,114.1,39.5z"/>
		<path fill="#FFFFFF" d="M104.7,28.9c5.9,6.2,2.3,9.2,2.3,9.2S102.4,37.1,104.7,28.9z"/>
		<path fill="#FFFFFF" d="M116.2,32.2c-2.2,8.2-6.7,6.7-6.7,6.7S108,34.4,116.2,32.2z"/>
		<path fill="#FFFFFF" d="M106.8,21.5c5.9,6.2,2.3,9.2,2.3,9.2S104.5,29.7,106.8,21.5z"/>
		<path fill="#FFFFFF" d="M118.3,24.8c-2.2,8.2-6.7,6.7-6.7,6.7S110.1,27,118.3,24.8z"/>
		<path fill="#FFFFFF" d="M115.1,16.4c1.3,8.4-3.4,8.9-3.4,8.9S108.5,21.8,115.1,16.4z"/>
	</g>
	<g clip-path="url(#SVGID_2_)">
		<path fill="#FFFFFF" d="M132.2,79.9c7.3,4.3,4.7,8.2,4.7,8.2S132.2,88.4,132.2,79.9z"/>
		<path fill="#FFFFFF" d="M144.2,79.8c0.1,8.5-4.6,8.3-4.6,8.3S136.9,84.2,144.2,79.8z"/>
		<path fill="#FFFFFF" d="M132.2,72.2c7.3,4.3,4.7,8.2,4.7,8.2S132.2,80.7,132.2,72.2z"/>
		<path fill="#FFFFFF" d="M144.2,72.2c0.1,8.5-4.6,8.3-4.6,8.3S136.9,76.6,144.2,72.2z"/>
		<path fill="#FFFFFF" d="M132.2,64.5c7.3,4.3,4.7,8.2,4.7,8.2S132.2,73.1,132.2,64.5z"/>
		<path fill="#FFFFFF" d="M144.2,64.5c0.1,8.5-4.6,8.3-4.6,8.3S136.9,68.9,144.2,64.5z"/>
		<path fill="#FFFFFF" d="M132.2,56.9c7.3,4.3,4.7,8.2,4.7,8.2S132.2,65.4,132.2,56.9z"/>
		<path fill="#FFFFFF" d="M144.2,56.9c0.1,8.5-4.6,8.3-4.6,8.3S136.9,61.3,144.2,56.9z"/>
		<path fill="#FFFFFF" d="M132.2,49.2c7.3,4.3,4.7,8.2,4.7,8.2S132.2,57.7,132.2,49.2z"/>
		<path fill="#FFFFFF" d="M144.2,49.2c0.1,8.5-4.6,8.3-4.6,8.3S136.9,53.6,144.2,49.2z"/>
		<path fill="#FFFFFF" d="M138.8,42c3.5,7.8-0.9,9.5-0.9,9.5S133.9,49,138.8,42z"/>
	</g>
	<g clip-path="url(#SVGID_2_)">
		<path fill="#FFFFFF" d="M134.7-8.8c3.5,7.8-0.9,9.5-0.9,9.5S129.8-1.9,134.7-8.8z"/>
		<path fill="#FFFFFF" d="M125-5.3c8,3,6.1,7.3,6.1,7.3S126.4,3.1,125-5.3z"/>
		<path fill="#FFFFFF" d="M120.6,4.1c7.8-3.5,9.5,0.9,9.5,0.9S127.6,9,120.6,4.1z"/>
		<path fill="#FFFFFF" d="M124.2,13.8c3-8,7.3-6.1,7.3-6.1S132.6,12.3,124.2,13.8z"/>
		<path fill="#FFFFFF" d="M133.6,18.1c-3.5-7.8,0.9-9.5,0.9-9.5S138.5,11.1,133.6,18.1z"/>
		<path fill="#FFFFFF" d="M143.3,14.5c-8-3-6.1-7.3-6.1-7.3S141.8,6.2,143.3,14.5z"/>
		<path fill="#FFFFFF" d="M147.6,5.2c-7.8,3.5-9.5-0.9-9.5-0.9S140.6,0.3,147.6,5.2z"/>
		<path fill="#FFFFFF" d="M144-4.5c-3,8-7.3,6.1-7.3,6.1S135.6-3,144-4.5z"/>
	</g>
	<g clip-path="url(#SVGID_2_)">
		<path fill="#FFFFFF" d="M164.7,13.7c3.5,7.8-0.9,9.5-0.9,9.5S159.9,20.7,164.7,13.7z"/>
		<path fill="#FFFFFF" d="M155.1,17.3c8,3,6.1,7.3,6.1,7.3S156.5,25.7,155.1,17.3z"/>
		<path fill="#FFFFFF" d="M150.7,26.6c7.8-3.5,9.5,0.9,9.5,0.9S157.7,31.5,150.7,26.6z"/>
		<path fill="#FFFFFF" d="M154.3,36.3c3-8,7.3-6.1,7.3-6.1S162.7,34.9,154.3,36.3z"/>
		<path fill="#FFFFFF" d="M163.7,40.7c-3.5-7.8,0.9-9.5,0.9-9.5S168.6,33.7,163.7,40.7z"/>
		<path fill="#FFFFFF" d="M173.4,37.1c-8-3-6.1-7.3-6.1-7.3S171.9,28.7,173.4,37.1z"/>
		<path fill="#FFFFFF" d="M177.7,27.7c-7.8,3.5-9.5-0.9-9.5-0.9S170.7,22.8,177.7,27.7z"/>
		<path fill="#FFFFFF" d="M174.1,18c-3,8-7.3,6.1-7.3,6.1S165.7,19.5,174.1,18z"/>
	</g>
	<g clip-path="url(#SVGID_2_)">
		<path fill="#FFFFFF" d="M194.8,36.2c3.5,7.8-0.9,9.5-0.9,9.5S189.9,43.2,194.8,36.2z"/>
		<path fill="#FFFFFF" d="M185.1,39.8c8,3,6.1,7.3,6.1,7.3S186.6,48.2,185.1,39.8z"/>
		<path fill="#FFFFFF" d="M180.8,49.2c7.8-3.5,9.5,0.9,9.5,0.9S187.8,54.1,180.8,49.2z"/>
		<path fill="#FFFFFF" d="M184.4,58.9c3-8,7.3-6.1,7.3-6.1S192.8,57.4,184.4,58.9z"/>
		<path fill="#FFFFFF" d="M193.8,63.2c-3.5-7.8,0.9-9.5,0.9-9.5S198.7,56.2,193.8,63.2z"/>
		<path fill="#FFFFFF" d="M203.5,59.6c-8-3-6.1-7.3-6.1-7.3S202,51.2,203.5,59.6z"/>
		<path fill="#FFFFFF" d="M207.8,50.3c-7.8,3.5-9.5-0.9-9.5-0.9S200.8,45.4,207.8,50.3z"/>
		<path fill="#FFFFFF" d="M204.2,40.6c-3,8-7.3,6.1-7.3,6.1S195.8,42,204.2,40.6z"/>
	</g>
	<g clip-path="url(#SVGID_2_)">
		<path fill="#FFFFFF" d="M224.9,58.8c3.5,7.8-0.9,9.5-0.9,9.5S220,65.8,224.9,58.8z"/>
		<path fill="#FFFFFF" d="M215.2,62.4c8,3,6.1,7.3,6.1,7.3S216.7,70.7,215.2,62.4z"/>
		<path fill="#FFFFFF" d="M210.9,71.7c7.8-3.5,9.5,0.9,9.5,0.9S217.9,76.6,210.9,71.7z"/>
		<path fill="#FFFFFF" d="M214.5,81.4c3-8,7.3-6.1,7.3-6.1S222.9,79.9,214.5,81.4z"/>
		<path fill="#FFFFFF" d="M223.9,85.7c-3.5-7.8,0.9-9.5,0.9-9.5S228.7,78.8,223.9,85.7z"/>
		<path fill="#FFFFFF" d="M233.5,82.2c-8-3-6.1-7.3-6.1-7.3S232.1,73.8,233.5,82.2z"/>
		<path fill="#FFFFFF" d="M237.9,72.8c-7.8,3.5-9.5-0.9-9.5-0.9S230.9,67.9,237.9,72.8z"/>
		<path fill="#FFFFFF" d="M234.3,63.1c-3,8-7.3,6.1-7.3,6.1S225.9,64.6,234.3,63.1z"/>
	</g>
	<g clip-path="url(#SVGID_2_)">
		<path fill="#FFFFFF" d="M255,81.3c3.5,7.8-0.9,9.5-0.9,9.5S250.1,88.3,255,81.3z"/>
		<path fill="#FFFFFF" d="M245.3,84.9c8,3,6.1,7.3,6.1,7.3S246.8,93.3,245.3,84.9z"/>
		<path fill="#FFFFFF" d="M241,94.3c7.8-3.5,9.5,0.9,9.5,0.9S248,99.2,241,94.3z"/>
		<path fill="#FFFFFF" d="M244.6,104c3-8,7.3-6.1,7.3-6.1S253,102.5,244.6,104z"/>
		<path fill="#FFFFFF" d="M253.9,108.3c-3.5-7.8,0.9-9.5,0.9-9.5S258.8,101.3,253.9,108.3z"/>
		<path fill="#FFFFFF" d="M263.6,104.7c-8-3-6.1-7.3-6.1-7.3S262.2,96.3,263.6,104.7z"/>
		<path fill="#FFFFFF" d="M268,95.3c-7.8,3.5-9.5-0.9-9.5-0.9S261,90.4,268,95.3z"/>
		<path fill="#FFFFFF" d="M264.4,85.7c-3,8-7.3,6.1-7.3,6.1S256,87.1,264.4,85.7z"/>
	</g>
	<g clip-path="url(#SVGID_2_)">
		<path fill="#FFFFFF" d="M285.1,103.9c3.5,7.8-0.9,9.5-0.9,9.5S280.2,110.8,285.1,103.9z"/>
		<path fill="#FFFFFF" d="M275.4,107.4c8,3,6.1,7.3,6.1,7.3S276.9,115.8,275.4,107.4z"/>
		<path fill="#FFFFFF" d="M271.1,116.8c7.8-3.5,9.5,0.9,9.5,0.9S278.1,121.7,271.1,116.8z"/>
		<path fill="#FFFFFF" d="M274.7,126.5c3-8,7.3-6.1,7.3-6.1S283,125,274.7,126.5z"/>
		<path fill="#FFFFFF" d="M284,130.8c-3.5-7.8,0.9-9.5,0.9-9.5S288.9,123.9,284,130.8z"/>
		<path fill="#FFFFFF" d="M293.7,127.3c-8-3-6.1-7.3-6.1-7.3S292.3,118.9,293.7,127.3z"/>
		<path fill="#FFFFFF" d="M298,117.9c-7.8,3.5-9.5-0.9-9.5-0.9S291.1,113,298,117.9z"/>
		<path fill="#FFFFFF" d="M294.5,108.2c-3,8-7.3,6.1-7.3,6.1S286.1,109.7,294.5,108.2z"/>
	</g>
	<g clip-path="url(#SVGID_2_)">
		<path fill="#FFFFFF" d="M315.2,126.4c3.5,7.8-0.9,9.5-0.9,9.5S310.3,133.4,315.2,126.4z"/>
		<path fill="#FFFFFF" d="M305.5,130c8,3,6.1,7.3,6.1,7.3S307,138.4,305.5,130z"/>
		<path fill="#FFFFFF" d="M301.2,139.4c7.8-3.5,9.5,0.9,9.5,0.9S308.1,144.2,301.2,139.4z"/>
		<path fill="#FFFFFF" d="M304.7,149c3-8,7.3-6.1,7.3-6.1S313.1,147.6,304.7,149z"/>
		<path fill="#FFFFFF" d="M314.1,153.4c-3.5-7.8,0.9-9.5,0.9-9.5S319,146.4,314.1,153.4z"/>
		<path fill="#FFFFFF" d="M323.8,149.8c-8-3-6.1-7.3-6.1-7.3S322.3,141.4,323.8,149.8z"/>
		<path fill="#FFFFFF" d="M328.1,140.4c-7.8,3.5-9.5-0.9-9.5-0.9S321.2,135.5,328.1,140.4z"/>
		<path fill="#FFFFFF" d="M324.6,130.7c-3,8-7.3,6.1-7.3,6.1S316.2,132.2,324.6,130.7z"/>
	</g>
	<g clip-path="url(#SVGID_2_)">
		<path fill="#FFFFFF" d="M166.2,107.5c8.2,2.3,6.7,6.8,6.7,6.8S168.3,115.8,166.2,107.5z"/>
		<path fill="#FFFFFF" d="M177.7,104.5c2.3,8.2-2.4,9.2-2.4,9.2S171.8,110.6,177.7,104.5z"/>
		<path fill="#FFFFFF" d="M164.2,100.1c8.2,2.3,6.7,6.8,6.7,6.8S166.4,108.4,164.2,100.1z"/>
		<path fill="#FFFFFF" d="M175.8,97.1c2.3,8.2-2.4,9.2-2.4,9.2S169.8,103.2,175.8,97.1z"/>
		<path fill="#FFFFFF" d="M162.3,92.7c8.2,2.3,6.7,6.8,6.7,6.8S164.4,101,162.3,92.7z"/>
		<path fill="#FFFFFF" d="M173.8,89.7c2.3,8.2-2.4,9.2-2.4,9.2S167.9,95.8,173.8,89.7z"/>
		<path fill="#FFFFFF" d="M160.3,85.3c8.2,2.3,6.7,6.8,6.7,6.8S162.5,93.6,160.3,85.3z"/>
		<path fill="#FFFFFF" d="M171.9,82.2c2.3,8.2-2.4,9.2-2.4,9.2S165.9,88.4,171.9,82.2z"/>
		<path fill="#FFFFFF" d="M158.4,77.9c8.2,2.3,6.7,6.8,6.7,6.8S160.5,86.1,158.4,77.9z"/>
		<path fill="#FFFFFF" d="M169.9,74.8c2.3,8.2-2.4,9.2-2.4,9.2S164,80.9,169.9,74.8z"/>
		<path fill="#FFFFFF" d="M162.9,69.3c5.4,6.6,1.6,9.4,1.6,9.4S159.9,77.3,162.9,69.3z"/>
	</g>
	<g clip-path="url(#SVGID_2_)">
		<path fill="#FFFFFF" d="M192.2,133.1c7.3,4.3,4.7,8.2,4.7,8.2S192.2,141.7,192.2,133.1z"/>
		<path fill="#FFFFFF" d="M204.1,133.1c0.1,8.5-4.6,8.3-4.6,8.3S196.9,137.5,204.1,133.1z"/>
		<path fill="#FFFFFF" d="M192.2,125.5c7.3,4.3,4.7,8.2,4.7,8.2S192.2,134,192.2,125.5z"/>
		<path fill="#FFFFFF" d="M204.1,125.5c0.1,8.5-4.6,8.3-4.6,8.3S196.9,129.9,204.1,125.5z"/>
		<path fill="#FFFFFF" d="M192.2,117.8c7.3,4.3,4.7,8.2,4.7,8.2S192.2,126.3,192.2,117.8z"/>
		<path fill="#FFFFFF" d="M204.1,117.8c0.1,8.5-4.6,8.3-4.6,8.3S196.9,122.2,204.1,117.8z"/>
		<path fill="#FFFFFF" d="M192.2,110.2c7.3,4.3,4.7,8.2,4.7,8.2S192.2,118.7,192.2,110.2z"/>
		<path fill="#FFFFFF" d="M204.1,110.1c0.1,8.5-4.6,8.3-4.6,8.3S196.9,114.5,204.1,110.1z"/>
		<path fill="#FFFFFF" d="M192.2,102.5c7.3,4.3,4.7,8.2,4.7,8.2S192.2,111,192.2,102.5z"/>
		<path fill="#FFFFFF" d="M204.1,102.5c0.1,8.5-4.6,8.3-4.6,8.3S196.9,106.9,204.1,102.5z"/>
		<path fill="#FFFFFF" d="M198.8,95.3c3.5,7.8-0.9,9.5-0.9,9.5S193.9,102.3,198.8,95.3z"/>
	</g>
	<g clip-path="url(#SVGID_2_)">
		<path fill="#FFFFFF" d="M218.1,157.4c5.7,6.3,2.1,9.3,2.1,9.3S215.6,165.5,218.1,157.4z"/>
		<path fill="#FFFFFF" d="M229.5,160.9c-2.4,8.2-6.9,6.6-6.9,6.6S221.2,162.9,229.5,160.9z"/>
		<path fill="#FFFFFF" d="M220.3,150c5.7,6.3,2.1,9.3,2.1,9.3S217.8,158.2,220.3,150z"/>
		<path fill="#FFFFFF" d="M231.8,153.5c-2.4,8.2-6.9,6.6-6.9,6.6S223.5,155.6,231.8,153.5z"/>
		<path fill="#FFFFFF" d="M222.6,142.7c5.7,6.3,2.1,9.3,2.1,9.3S220.1,150.9,222.6,142.7z"/>
		<path fill="#FFFFFF" d="M234,146.2c-2.4,8.2-6.9,6.6-6.9,6.6S225.8,148.3,234,146.2z"/>
		<path fill="#FFFFFF" d="M224.8,135.4c5.7,6.3,2.1,9.3,2.1,9.3S222.3,143.5,224.8,135.4z"/>
		<path fill="#FFFFFF" d="M236.3,138.9c-2.4,8.2-6.9,6.6-6.9,6.6S228,141,236.3,138.9z"/>
		<path fill="#FFFFFF" d="M227.1,128.1c5.7,6.3,2.1,9.3,2.1,9.3S224.6,136.2,227.1,128.1z"/>
		<path fill="#FFFFFF" d="M238.5,131.6c-2.4,8.2-6.9,6.6-6.9,6.6S230.3,133.6,238.5,131.6z"/>
		<path fill="#FFFFFF" d="M235.5,123.2c1.1,8.4-3.6,8.8-3.6,8.8S228.8,128.4,235.5,123.2z"/>
	</g>
	<g clip-path="url(#SVGID_2_)">
		<path fill="#FFFFFF" d="M252.1,186.4c7.3,4.3,4.7,8.2,4.7,8.2S252.1,194.9,252.1,186.4z"/>
		<path fill="#FFFFFF" d="M264.1,186.4c0.1,8.5-4.6,8.3-4.6,8.3S256.8,190.8,264.1,186.4z"/>
		<path fill="#FFFFFF" d="M252.1,178.8c7.3,4.3,4.7,8.2,4.7,8.2S252.1,187.3,252.1,178.8z"/>
		<path fill="#FFFFFF" d="M264.1,178.7c0.1,8.5-4.6,8.3-4.6,8.3S256.8,183.1,264.1,178.7z"/>
		<path fill="#FFFFFF" d="M252.1,171.1c7.3,4.3,4.7,8.2,4.7,8.2S252.1,179.6,252.1,171.1z"/>
		<path fill="#FFFFFF" d="M264.1,171.1c0.1,8.5-4.6,8.3-4.6,8.3S256.8,175.5,264.1,171.1z"/>
		<path fill="#FFFFFF" d="M252.1,163.4c7.3,4.3,4.7,8.2,4.7,8.2S252.1,172,252.1,163.4z"/>
		<path fill="#FFFFFF" d="M264.1,163.4c0.1,8.5-4.6,8.3-4.6,8.3S256.8,167.8,264.1,163.4z"/>
		<path fill="#FFFFFF" d="M252.1,155.8c7.3,4.3,4.7,8.2,4.7,8.2S252.1,164.3,252.1,155.8z"/>
		<path fill="#FFFFFF" d="M264.1,155.8c0.1,8.5-4.6,8.3-4.6,8.3S256.8,160.2,264.1,155.8z"/>
		<path fill="#FFFFFF" d="M258.7,148.6c3.5,7.8-0.9,9.5-0.9,9.5S253.8,155.6,258.7,148.6z"/>
	</g>
</g>
</svg>
